<?xml version="1.0" encoding="UTF-8" standalone="no"?>
<!-- Created with Inkscape (http://www.inkscape.org/) -->

<svg
   xmlns:osb="http://www.openswatchbook.org/uri/2009/osb"
   xmlns:dc="http://purl.org/dc/elements/1.1/"
   xmlns:cc="http://creativecommons.org/ns#"
   xmlns:rdf="http://www.w3.org/1999/02/22-rdf-syntax-ns#"
   xmlns:svg="http://www.w3.org/2000/svg"
   xmlns="http://www.w3.org/2000/svg"
   xmlns:sodipodi="http://sodipodi.sourceforge.net/DTD/sodipodi-0.dtd"
   xmlns:inkscape="http://www.inkscape.org/namespaces/inkscape"
   width="516"
   height="516"
   viewBox="0 0 136.525 136.525"
   version="1.1"
   id="svg8"
   inkscape:version="0.92.4 (5da689c313, 2019-01-14)"
   sodipodi:docname="icon_text_to_path.svg">
  <title
     id="title4571">App Icon</title>
  <defs
     id="defs2">
    <linearGradient
       id="linearGradient4558"
       osb:paint="solid">
      <stop
         style="stop-color:#0000ff;stop-opacity:1;"
         offset="0"
         id="stop4556" />
    </linearGradient>
  </defs>
  <sodipodi:namedview
     id="base"
     pagecolor="#000000"
     bordercolor="#666666"
     borderopacity="1.0"
     inkscape:pageopacity="0"
     inkscape:pageshadow="2"
     inkscape:zoom="1"
     inkscape:cx="-2.43681"
     inkscape:cy="187.99185"
     inkscape:document-units="mm"
     inkscape:current-layer="layer2"
     showgrid="false"
     inkscape:snap-grids="true"
     units="px"
     width="1024px"
     inkscape:pagecheckerboard="true"
     inkscape:snap-bbox="false"
     inkscape:snap-global="false"
     inkscape:window-width="1920"
     inkscape:window-height="1137"
     inkscape:window-x="-8"
     inkscape:window-y="-8"
     inkscape:window-maximized="1" />
  <metadata
     id="metadata5">
    <rdf:RDF>
      <cc:Work
         rdf:about="">
        <dc:format>image/svg+xml</dc:format>
        <dc:type
           rdf:resource="http://purl.org/dc/dcmitype/StillImage" />
        <dc:title>App Icon</dc:title>
      </cc:Work>
    </rdf:RDF>
  </metadata>
  <g
     inkscape:label="Layer Background"
     inkscape:groupmode="layer"
     id="layerBg"
     transform="translate(0,-134.40833)">
    <rect
       width="136.3925"
       height="136.3925"
       id="rect8"
       x="0"
       y="134.40833"
       style="fill:#000300;fill-opacity:1" />
  </g>
  <g
     inkscape:label="Layer 1"
     inkscape:groupmode="layer"
     id="layer1"
     transform="translate(0,-134.40833)">
    <rect
       style="fill:#1111ee;fill-opacity:1;fill-rule:evenodd;stroke:#000000;stroke-width:0.10450948;stroke-linecap:butt;stroke-linejoin:miter;stroke-miterlimit:4;stroke-dasharray:none;stroke-opacity:1"
       id="rect4532"
       width="136.42043"
       height="23.895491"
       x="0.052254736"
       y="179.2522"
       ry="0" />
  </g>
  <g
     inkscape:groupmode="layer"
     id="layer2"
     inkscape:label="Background"
     transform="translate(0,-134.40833)">
    <g
       aria-label="Text"
       style="font-style:normal;font-variant:normal;font-weight:bold;font-stretch:normal;font-size:97.71961975px;line-height:125%;font-family:Consolas;-inkscape-font-specification:'Consolas Bold';text-align:center;letter-spacing:0px;word-spacing:0px;text-anchor:middle;fill:#ffffff;fill-opacity:1;stroke:none;stroke-width:0.26458332px;stroke-linecap:butt;stroke-linejoin:miter;stroke-opacity:1"
       id="text4565">
      <path
         d="M 48.219622,185.52402 V 199.9507 H 44.920598 V 185.52402 H 40.23389 v -2.68373 h 12.67244 v 2.68373 z"
         style="font-style:normal;font-variant:normal;font-weight:bold;font-stretch:normal;font-size:26.81111145px;line-height:125%;font-family:Consolas;-inkscape-font-specification:'Consolas Bold';text-align:center;text-anchor:middle;fill:#ffffff;fill-opacity:1;stroke-width:0.26458332px"
         id="path823"
         inkscape:connector-curvature="0" />
      <path
         d="m 67.372286,192.27916 q 0,0.32728 -0.02618,0.85094 -0.01309,0.52365 -0.05236,0.98185 h -8.745031 q 0,0.87712 0.261827,1.54478 0.274919,0.66766 0.759299,1.12586 0.497472,0.44511 1.178223,0.68075 0.693842,0.23564 1.53169,0.23564 0.96876,0 2.068435,-0.144 1.112766,-0.1571 2.30408,-0.49747 v 2.53972 q -0.510563,0.14401 -1.112766,0.26183 -0.602203,0.11782 -1.230588,0.20946 -0.628386,0.0916 -1.269862,0.13091 -0.641477,0.0524 -1.24368,0.0524 -1.518598,0 -2.723003,-0.43201 -1.204406,-0.43202 -2.042253,-1.26987 -0.837847,-0.85094 -1.282954,-2.09462 -0.445106,-1.24367 -0.445106,-2.88009 0,-1.62333 0.445106,-2.94556 0.445107,-1.33532 1.256771,-2.2779 0.811665,-0.95567 1.963705,-1.46623 1.165131,-0.52366 2.59209,-0.52366 1.413867,0 2.50045,0.44511 1.086583,0.43202 1.819699,1.2175 0.733117,0.78548 1.112766,1.87206 0.37965,1.08659 0.37965,2.38263 z m -3.246658,-0.4582 q 0.01309,-0.78548 -0.196371,-1.3615 -0.209462,-0.58911 -0.57602,-0.96876 -0.353467,-0.37965 -0.837847,-0.56293 -0.471289,-0.18328 -1.021126,-0.18328 -1.204406,0 -1.976796,0.81167 -0.772391,0.79857 -0.916395,2.2648 z"
         style="font-style:normal;font-variant:normal;font-weight:bold;font-stretch:normal;font-size:26.81111145px;line-height:125%;font-family:Consolas;-inkscape-font-specification:'Consolas Bold';text-align:center;text-anchor:middle;fill:#ffffff;fill-opacity:1;stroke-width:0.26458332px"
         id="path825"
         inkscape:connector-curvature="0" />
      <path
         d="m 79.115238,199.9507 -3.037196,-4.47725 -3.050288,4.47725 h -3.861952 l 4.98781,-6.70278 -4.725982,-6.59805 h 3.888134 l 2.984831,4.37252 2.945557,-4.37252 h 3.587033 l -4.581977,6.57187 4.830713,6.72896 z"
         style="font-style:normal;font-variant:normal;font-weight:bold;font-stretch:normal;font-size:26.81111145px;line-height:125%;font-family:Consolas;-inkscape-font-specification:'Consolas Bold';text-align:center;text-anchor:middle;fill:#ffffff;fill-opacity:1;stroke-width:0.26458332px"
         id="path827"
         inkscape:connector-curvature="0" />
      <path
         d="m 96.291105,199.81979 q -0.86403,0.19637 -1.741152,0.31419 -0.877121,0.11782 -1.662603,0.11782 -1.309136,0 -2.264806,-0.27492 -0.942578,-0.27492 -1.570963,-0.83785 -0.615294,-0.56292 -0.916396,-1.42695 -0.28801,-0.87713 -0.28801,-2.08153 v -6.49332 h -3.573942 v -2.48736 h 3.573942 v -3.40375 l 3.272841,-0.85094 v 4.25469 h 5.171089 v 2.48736 h -5.171089 v 6.25767 q 0,1.13895 0.523655,1.72806 0.523654,0.57602 1.754242,0.57602 0.785482,0 1.53169,-0.13091 0.746208,-0.13091 1.361502,-0.3011 z"
         style="font-style:normal;font-variant:normal;font-weight:bold;font-stretch:normal;font-size:26.81111145px;line-height:125%;font-family:Consolas;-inkscape-font-specification:'Consolas Bold';text-align:center;text-anchor:middle;fill:#ffffff;fill-opacity:1;stroke-width:0.26458332px"
         id="path829"
         inkscape:connector-curvature="0" />
    </g>
    <g
       aria-label="TV"
       style="font-style:normal;font-variant:normal;font-weight:bold;font-stretch:normal;font-size:97.71944427px;line-height:125%;font-family:Consolas;-inkscape-font-specification:'Consolas Bold';letter-spacing:0px;word-spacing:0px;fill:#fcff00;fill-opacity:1;stroke:none;stroke-width:0.26458332px;stroke-linecap:butt;stroke-linejoin:miter;stroke-opacity:1"
       id="text4569">
      <path
         d="m 62.011374,212.92596 v 14.42669 H 58.71235 v -14.42669 h -4.686708 v -2.68373 h 12.67244 v 2.68373 z"
         style="font-size:26.81111145px;fill:#fcff00;fill-opacity:1;stroke-width:0.26458332px"
         id="path832"
         inkscape:connector-curvature="0" />
      <path
         d="m 77.24972,227.35265 h -4.267784 l -5.223454,-17.11042 h 3.65249 l 2.893191,10.30291 0.929487,3.37757 0.968761,-3.57394 2.867009,-10.10654 h 3.429937 z"
         style="font-size:26.81111145px;fill:#fcff00;fill-opacity:1;stroke-width:0.26458332px"
         id="path834"
         inkscape:connector-curvature="0" />
    </g>
  </g>
</svg>
